<svg width="24" height="22" viewBox="0 0 24 22" fill="none" xmlns="http://www.w3.org/2000/svg">
<path fill-rule="evenodd" clip-rule="evenodd" d="M3.4774 0.35945C3.22352 0.122878 2.88772 -0.00591316 2.54076 0.000208655C2.19379 0.00633047 1.86275 0.146888 1.61737 0.392268C1.37199 0.637648 1.23143 0.968693 1.22531 1.31566C1.21918 1.66263 1.34798 1.99842 1.58455 2.25231L20.3345 21.0023C20.4572 21.1339 20.605 21.2394 20.7693 21.3126C20.9336 21.3858 21.1109 21.4252 21.2908 21.4284C21.4706 21.4315 21.6492 21.3985 21.816 21.3311C21.9827 21.2637 22.1342 21.1635 22.2614 21.0363C22.3886 20.9091 22.4888 20.7576 22.5562 20.5909C22.6236 20.4241 22.6566 20.2455 22.6535 20.0657C22.6503 19.8858 22.6109 19.7085 22.5377 19.5442C22.4645 19.3799 22.359 19.2321 22.2274 19.1094L19.8667 16.747C21.6382 15.2853 22.9727 13.3638 23.7238 11.1934C23.8369 10.8653 23.8369 10.5089 23.7238 10.1809C23.1412 8.48971 22.2026 6.9432 20.9713 5.64574C19.74 4.34828 18.2447 3.33005 16.5864 2.65979C14.928 1.98954 13.1451 1.68284 11.3581 1.76041C9.57106 1.83798 7.82147 2.29801 6.2274 3.10945L3.4774 0.35945ZM9.18455 6.06481L11.2113 8.09338C11.6658 7.97197 12.1441 7.9722 12.5984 8.09404C13.0527 8.21589 13.467 8.45506 13.7997 8.78756C14.1324 9.12006 14.3718 9.53421 14.4938 9.98844C14.6159 10.4427 14.6164 10.921 14.4953 11.3755L16.5238 13.4023C17.1285 12.379 17.3758 11.1837 17.2266 10.0045C17.0774 8.82532 16.5403 7.72922 15.6999 6.88876C14.8594 6.0483 13.7633 5.51121 12.5841 5.36204C11.4049 5.21287 10.2096 5.4601 9.18633 6.06481" fill="#292929"/>
<path d="M11.5702 16.0273L14.8131 19.2702C11.7919 19.9918 8.61022 19.5633 5.88763 18.068C3.16504 16.5727 1.0964 14.1176 0.0844906 11.1809C-0.0281636 10.8534 -0.0281636 10.4977 0.0844906 10.1702C0.539576 8.85426 1.21132 7.62362 2.07199 6.5291L6.55949 11.0166C6.64129 12.3187 7.19547 13.5462 8.11802 14.4688C9.04057 15.3913 10.2681 15.9455 11.5702 16.0273Z" fill="#292929"/>
</svg>
