<svg width="25" height="18" viewBox="0 0 25 18" fill="none" xmlns="http://www.w3.org/2000/svg">
<path d="M12.5 5.4C11.5959 5.4 10.7287 5.77928 10.0894 6.45442C9.45008 7.12955 9.09091 8.04522 9.09091 9C9.09091 9.95478 9.45008 10.8705 10.0894 11.5456C10.7287 12.2207 11.5959 12.6 12.5 12.6C13.4041 12.6 14.2713 12.2207 14.9106 11.5456C15.5499 10.8705 15.9091 9.95478 15.9091 9C15.9091 8.04522 15.5499 7.12955 14.9106 6.45442C14.2713 5.77928 13.4041 5.4 12.5 5.4ZM12.5 15C10.9931 15 9.5479 14.3679 8.48235 13.2426C7.4168 12.1174 6.81818 10.5913 6.81818 9C6.81818 7.4087 7.4168 5.88258 8.48235 4.75736C9.5479 3.63214 10.9931 3 12.5 3C14.0069 3 15.4521 3.63214 16.5177 4.75736C17.5832 5.88258 18.1818 7.4087 18.1818 9C18.1818 10.5913 17.5832 12.1174 16.5177 13.2426C15.4521 14.3679 14.0069 15 12.5 15ZM12.5 0C6.81818 0 1.96591 3.732 0 9C1.96591 14.268 6.81818 18 12.5 18C18.1818 18 23.0341 14.268 25 9C23.0341 3.732 18.1818 0 12.5 0Z" fill="#292929"/>
</svg>
